<?xml version="1.0" encoding="utf-8"?>
<!-- Generator: Adobe Illustrator 21.0.0, SVG Export Plug-In . SVG Version: 6.00 Build 0)  -->
<svg version="1.1" id="Layer_2" xmlns="http://www.w3.org/2000/svg" xmlns:xlink="http://www.w3.org/1999/xlink" x="0px" y="0px"
	 viewBox="0 0 150 150" style="enable-background:new 0 0 150 150;" xml:space="preserve">
<style type="text/css">
	.st0{fill:#85776F;}
</style>
<g>
	<g>
		<g>
			<path class="st0" d="M20,10.7v28h-6.4v-28H3.7V5.2h26.2v5.5H20z"/>
			<path class="st0" d="M47.9,38.4V23.3c0-2.9-0.6-4.1-2-4.1c-1.2,0-2.9,1.2-5.5,4.1l-0.9,0.9v14h-6.1V1.7h6.1v17.2
				c2.9-3.2,5.2-4.4,8.2-4.4c4.4,0,6.4,2.3,6.4,6.7v17.2H47.9z"/>
			<path class="st0" d="M77.1,37.5c-2.3,1.2-5,1.7-7.9,1.7c-7,0-11.4-4.7-11.4-11.6c0-7.3,5-13.1,11.6-13.1c5.8,0,9.9,4.4,9.9,10.8
				v2.6H64c0,2,0.3,2.9,0.9,3.8c0.9,1.7,2.9,2.9,5.2,2.9c0.9,0,1.7,0,2.9-0.3c1.5-0.3,2.3-0.9,4.4-2.3l2.3,4.7
				C78.5,36.9,77.6,37.2,77.1,37.5z M69.2,18.9c-2.6,0-4.4,1.7-5,5h9.3C73.3,20.3,72.1,18.9,69.2,18.9z"/>
			<path class="st0" d="M31.9,87c-3.5,0.9-5.5,1.2-8.4,1.2c-11.1,0-18.6-7-18.6-17.5c0-5,2-9.3,5.5-12.8c3.5-3.2,7.3-4.4,13.1-4.4
				c2.3,0,5,0.3,7,0.9c1.7,0.3,2.6,0.9,5,1.7L34,61.4c-1.2-0.6-2-0.9-2.6-0.9c-2.3-0.9-4.7-1.2-7-1.2c-7.6,0-12.5,4.7-12.5,11.1
				c0,6.7,5.8,11.9,13.1,11.9c1.5,0,2.3-0.3,4.4-0.6v-9h6.4v13.7L31.9,87z"/>
			<path class="st0" d="M44.2,59.9c-1.7,0-3.5-1.7-3.5-4.1c0-2.3,1.5-4.1,3.5-4.1c1.7,0,3.5,1.7,3.5,4.1
				C47.4,57.9,45.9,59.9,44.2,59.9z M41,87.6V64h6.1v23.6H41z"/>
			<path class="st0" d="M63.4,87.6h-6.1L49.7,64h6.4l4.7,15.4l0.3,0.9l0.3-0.9L66.6,64H73L63.4,87.6z"/>
			<path class="st0" d="M77.9,59.9c-1.7,0-3.5-1.7-3.5-4.1c0-2.3,1.5-4.1,3.5-4.1c1.7,0,3.5,1.7,3.5,4.1
				C81.4,57.9,79.7,59.9,77.9,59.9z M75,87.6V64h6.1v23.6H75z"/>
			<path class="st0" d="M101.2,87.6V72.5c0-2.9-0.6-4.1-2-4.1c-1.2,0-2.9,1.2-5.5,4.1l-0.9,0.9v14h-6.1V64h6.1v3.8
				c2.9-3.2,5.2-4.4,8.2-4.4c4.4,0,6.4,2.3,6.4,6.7v17.2h-6.1V87.6z"/>
			<path class="st0" d="M130.6,68.7c0.9,1.2,1.2,2,1.2,3.5c0,5.2-4.1,9-10.2,9c-0.6,0-0.9,0-1.7-0.3c-1.5,1.2-2.3,2-2.3,2.6
				c0,0.6,0.3,0.6,1.5,0.6h8.2c4.7,0,6.7,1.7,6.7,5.5c0,5.8-5.5,10.2-13.4,10.2c-5.8,0-9.6-2.3-9.6-5.8c0-1.7,0.9-3.5,3.8-5.8
				c-2.3-0.9-3.2-1.7-3.2-3.2c0-1.5,0.9-2.3,3.2-4.1l1.5-0.9c-1.2-0.9-1.5-1.2-2-1.7c-1.5-1.7-2-3.5-2-5.8c0-5.5,3.8-9,9.9-9
				c1.7,0,2.6,0.3,5,0.9h3.2l4.7-0.3v4.7C134.7,68.7,130.6,68.7,130.6,68.7z M125.4,89.1h-7.3l-0.6,0.9c-0.6,1.2-1.2,2-1.2,2.6
				c0,1.5,2,2.6,5,2.6c1.7,0,3.8-0.6,5.2-1.7c1.2-0.9,1.7-2,1.7-2.9C128.3,89.6,127.4,89.1,125.4,89.1z M121.6,67.8
				c-2,0-3.8,2-3.8,4.4s1.7,4.4,3.8,4.4s3.8-2,3.8-4.4C125.7,69.8,123.9,67.8,121.6,67.8z"/>
			<path class="st0" d="M27,122.5c-2.3,2-5.2,2.9-9.9,2.9c-1.2,0-2,0-3.2-0.3v11.6H7.8v-33.5h11.4c4.4,0,6.7,0.9,8.7,2.6
				c1.7,1.7,2.9,4.4,2.9,7.6C30.8,117.3,29.3,120.5,27,122.5z M18.5,108.9h-4.4v11.1h1.7c0.6,0,1.2,0,1.5,0c5,0,7-1.7,7-5.8
				C24.1,110.6,22.3,108.9,18.5,108.9z"/>
			<path class="st0" d="M34.3,136.8v-37h6.1v37H34.3z"/>
			<path class="st0" d="M63.4,135.6c-2.3,1.2-5,1.7-7.9,1.7c-7,0-11.4-4.7-11.4-11.6c0-7.3,5-13.1,11.6-13.1c5.8,0,9.9,4.4,9.9,10.8
				v2.6H50.3c0,2,0.3,2.9,0.9,3.8c0.9,1.7,2.9,2.9,5.2,2.9c0.9,0,1.7,0,2.9-0.3c1.5-0.3,2.3-0.9,4.4-2.3l2.3,4.7
				C64.8,135.1,64,135.4,63.4,135.6z M55.8,117c-2.6,0-4.4,1.7-5,5h9.3C59.9,118.5,58.7,117,55.8,117z"/>
			<path class="st0" d="M84.3,136.8v-3.2c-0.9,1.5-1.2,1.7-2.3,2.6c-1.5,0.9-2.9,1.2-4.4,1.2c-5.5,0-9.6-5-9.6-11.6
				c0-7.3,5-13.1,11.1-13.1c0.6,0,1.5,0,2,0.3c1.2,0.3,1.7,0.6,3.2,1.5v-14.3h6.1v36.7H84.3z M84.3,122.5c0-1.5-0.3-2.6-0.3-2.9
				c-0.3-1.2-2-2-4.1-2c-3.2,0-5.8,3.2-5.8,7.9c0,4.4,2,7.3,5,7.3c1.7,0,3.8-1.2,5.2-3.5V122.5z"/>
			<path class="st0" d="M114.6,117.9c0.9,1.2,1.2,2,1.2,3.5c0,5.2-4.1,9-10.2,9c-0.6,0-0.9,0-1.7-0.3c-1.5,1.2-2.3,2-2.3,2.6
				c0,0.6,0.3,0.6,1.5,0.6h8.2c4.7,0,6.7,1.7,6.7,5.5c0,5.8-5.5,10.2-13.4,10.2c-5.8,0-9.6-2.3-9.6-5.8c0-1.7,0.9-3.5,3.8-5.8
				c-2.3-0.9-3.2-1.7-3.2-3.2c0-1.5,0.9-2.3,3.2-4.1l1.5-0.9c-1.2-0.9-1.5-1.2-2-1.7c-1.5-1.7-2-3.5-2-5.8c0-5.5,3.8-9,9.9-9
				c1.7,0,2.6,0.3,5,0.9h3.5l4.7-0.3v4.7C119,117.9,114.6,117.9,114.6,117.9z M109.4,138h-7.3l-0.6,0.9c-0.6,1.2-1.2,2-1.2,2.6
				c0,1.5,2,2.6,5,2.6c1.7,0,3.8-0.6,5.2-1.7c1.2-0.9,1.7-2,1.7-2.9C112.3,138.6,111.4,138,109.4,138z M105.6,117
				c-2,0-3.8,2-3.8,4.4c0,2.3,1.7,4.4,3.8,4.4s3.8-2,3.8-4.4C109.7,119.1,107.9,117,105.6,117z"/>
			<path class="st0" d="M139.4,135.6c-2.3,1.2-5,1.7-7.9,1.7c-7,0-11.4-4.7-11.4-11.6c0-7.3,5-13.1,11.6-13.1
				c5.8,0,9.9,4.4,9.9,10.8v2.6h-15.4c0,2,0.3,2.9,0.9,3.8c0.9,1.7,2.9,2.9,5.2,2.9c0.9,0,1.7,0,2.9-0.3c1.5-0.3,2.3-0.9,4.4-2.3
				l2.3,4.7C140.8,135.1,140,135.4,139.4,135.6z M131.8,117c-2.6,0-4.4,1.7-5,5h9C135.9,118.5,134.4,117,131.8,117z"/>
		</g>
	</g>
</g>
</svg>
